<?xml version="1.0" standalone="no"?>
<!DOCTYPE svg PUBLIC "-//W3C//DTD SVG 20010904//EN"
 "http://www.w3.org/TR/2001/REC-SVG-20010904/DTD/svg10.dtd">
<svg version="1.0" xmlns="http://www.w3.org/2000/svg"
 width="1080.000000pt" height="1080.000000pt" viewBox="0 0 1080.000000 1080.000000"
 preserveAspectRatio="xMidYMid meet">

<g transform="translate(0.000000,1080.000000) scale(0.100000,-0.100000)"
fill="#000000" stroke="none">
<path d="M0 5400 l0 -5400 5400 0 5400 0 0 5400 0 5400 -5400 0 -5400 0 0
-5400z m5740 4365 c994 -81 1868 -461 2618 -1137 69 -62 179 -171 245 -243
414 -450 712 -938 916 -1499 435 -1197 319 -2541 -317 -3661 -76 -134 -266
-413 -367 -540 -294 -368 -626 -674 -1010 -929 -318 -211 -586 -347 -937 -474
-951 -346 -2023 -347 -2974 -1 -551 200 -1022 486 -1472 891 -305 275 -641
694 -844 1053 -727 1284 -770 2826 -116 4130 99 197 145 276 274 470 323 487
731 895 1219 1219 194 129 273 175 470 274 707 355 1511 512 2295 447z"/>
<path d="M5110 9674 c-25 -2 -108 -11 -185 -19 -1780 -194 -3261 -1496 -3684
-3240 -90 -369 -116 -595 -116 -1015 0 -420 26 -646 116 -1015 376 -1550 1595
-2769 3144 -3145 370 -89 595 -115 1015 -115 420 0 645 26 1015 115 1548 375
2770 1597 3145 3145 89 370 115 595 115 1015 0 339 -10 463 -56 735 -183 1068
-786 2048 -1664 2701 -610 454 -1298 725 -2075 820 -129 15 -658 28 -770 18z
m-2312 -1946 c17 -17 17 -3879 0 -3896 -15 -15 -51 -15 -66 0 -17 17 -17 3879
0 3896 7 7 21 12 33 12 12 0 26 -5 33 -12z m1892 -278 c137 -14 224 -37 312
-82 116 -60 178 -138 178 -226 0 -58 -61 -146 -125 -179 -44 -23 -124 -43
-175 -43 l-45 0 -12 75 c-18 110 -69 203 -137 244 -19 12 -68 29 -108 37 -61
13 -87 14 -163 4 -304 -40 -443 -266 -462 -750 -12 -324 60 -601 189 -727 63
-61 150 -107 234 -123 75 -15 328 -10 344 6 8 8 11 79 8 240 -3 209 -5 232
-23 264 -27 45 -70 69 -141 78 l-59 7 -3 64 c-2 45 1 67 10 72 7 5 194 9 414
9 334 0 404 -2 413 -14 7 -9 11 -38 9 -73 l-3 -58 -53 -6 c-29 -4 -64 -14 -78
-24 -49 -32 -54 -62 -54 -349 0 -308 20 -266 -151 -327 -182 -65 -294 -83
-514 -83 -265 0 -410 32 -577 130 -273 160 -418 457 -418 855 0 373 137 661
392 826 209 135 475 186 798 153z m1827 -25 c162 -17 287 -51 393 -105 289
-151 430 -417 430 -813 0 -538 -259 -888 -723 -978 -88 -17 -147 -19 -606 -19
-562 0 -521 -5 -521 63 0 71 6 77 74 77 81 0 131 15 156 47 20 25 20 35 20
772 0 828 4 778 -66 807 -18 8 -65 14 -103 14 -75 0 -81 4 -81 63 0 48 10 75
29 80 9 3 206 5 437 6 308 1 459 -3 561 -14z m1623 -1134 c7 -13 10 -636 10
-1941 0 -1305 -3 -1928 -10 -1941 -16 -30 -68 -26 -80 7 -14 35 -14 3833 0
3868 12 33 64 37 80 7z m-786 -1671 c33 -12 37 -64 7 -80 -13 -7 -636 -10
-1941 -10 -1305 0 -1928 3 -1941 10 -28 16 -26 68 4 80 31 12 3838 13 3871 0z
m-1024 -799 c7 -15 6 -24 -6 -36 -31 -30 -86 0 -71 39 9 23 64 21 77 -3z
m-1961 -16 c38 -19 45 -41 21 -65 -28 -28 -44 -25 -57 10 -22 58 -102 48 -130
-17 -11 -27 -14 -58 -10 -106 5 -82 32 -118 88 -120 34 -2 34 -2 37 46 3 42 0
49 -17 54 -12 3 -21 12 -21 19 0 11 19 14 80 14 61 0 80 -3 80 -14 0 -7 -9
-16 -20 -19 -17 -4 -20 -14 -20 -61 l0 -55 -42 -12 c-63 -16 -148 -8 -186 20
-47 33 -66 76 -65 148 1 74 27 124 81 153 45 23 141 26 181 5z m406 -80 c37
-18 55 -51 55 -100 l0 -35 -75 0 c-65 0 -75 -2 -75 -18 0 -52 62 -80 106 -47
26 20 34 19 34 -5 0 -56 -136 -69 -187 -17 -32 31 -43 118 -23 168 26 61 99
85 165 54z m449 -6 c24 -19 26 -26 26 -105 0 -71 3 -87 20 -104 29 -29 17 -40
-41 -40 l-49 0 0 91 c0 98 -10 129 -41 129 -26 0 -39 -37 -39 -110 0 -49 4
-61 21 -74 34 -24 13 -36 -62 -36 -52 0 -69 3 -69 14 0 8 7 16 15 20 12 4 15
25 15 100 0 74 -3 95 -15 100 -33 12 -12 26 40 26 32 0 55 -4 55 -11 0 -5 10
-3 22 5 31 22 70 20 102 -5z m395 10 c37 -13 61 -53 61 -104 l0 -35 -75 0
c-65 0 -75 -2 -75 -18 0 -52 62 -80 106 -47 26 20 34 19 34 -5 0 -56 -136 -69
-187 -17 -32 31 -43 118 -23 168 24 58 90 82 159 58z m445 -11 c13 -19 14 -25
2 -43 -19 -29 -52 -31 -59 -4 -3 11 -12 19 -19 17 -24 -8 -38 -52 -36 -113 3
-51 6 -61 26 -70 12 -5 22 -15 22 -22 0 -9 -22 -13 -80 -13 -62 0 -80 3 -80
14 0 8 7 16 15 20 12 4 15 25 15 100 0 74 -3 95 -15 100 -8 3 -15 10 -15 16 0
13 97 13 105 0 4 -7 14 -5 28 5 32 22 73 19 91 -7z m646 9 c18 -9 25 -21 25
-42 0 -25 -4 -31 -27 -33 -19 -2 -28 1 -28 10 0 8 -7 23 -15 34 -15 19 -15 19
-35 -5 -15 -17 -20 -38 -20 -83 0 -77 11 -98 54 -98 19 0 39 7 46 15 17 21 30
19 30 -4 0 -30 -39 -51 -92 -51 -38 0 -54 6 -80 29 -27 24 -32 36 -36 87 -2
32 1 71 7 86 21 56 112 85 171 55z m-380 -102 c0 -94 2 -106 20 -117 41 -26
23 -38 -55 -38 -57 0 -75 3 -75 14 0 8 7 16 15 20 12 4 15 25 15 101 0 78 -3
95 -15 95 -8 0 -15 7 -15 15 0 12 13 15 55 15 l55 0 0 -105z m-1360 -465 c0
-57 1 -60 19 -50 33 17 89 12 111 -10 17 -17 20 -33 20 -105 0 -73 3 -88 20
-102 31 -27 24 -33 -35 -33 l-55 0 -1 83 c-1 104 -9 131 -37 135 -29 4 -42
-30 -42 -115 0 -56 3 -66 20 -70 11 -3 20 -12 20 -19 0 -11 -18 -14 -75 -14
-60 0 -75 3 -75 15 0 8 7 15 15 15 13 0 15 23 15 149 0 140 -1 149 -20 154
-43 11 -19 27 40 27 l60 0 0 -60z m450 0 c0 -57 1 -60 19 -50 35 18 90 12 115
-13 45 -45 45 -163 1 -215 -28 -33 -92 -37 -124 -8 -19 17 -21 17 -27 2 -4
-12 -19 -16 -55 -16 -49 0 -68 17 -29 27 19 5 20 14 20 153 0 139 -1 148 -20
153 -43 11 -19 27 40 27 l60 0 0 -60z m1800 -101 c0 -152 1 -161 20 -166 11
-3 20 -12 20 -19 0 -21 -96 -19 -104 2 -5 13 -9 13 -32 -5 -32 -25 -55 -26
-95 -6 -38 20 -49 50 -49 131 0 59 3 68 29 95 31 31 75 38 112 19 17 -10 19
-7 19 33 0 36 -4 46 -20 50 -43 11 -19 27 40 27 l60 0 0 -161z m-3382 122 c53
-27 77 -73 77 -146 0 -67 -21 -114 -68 -149 -24 -18 -45 -21 -143 -24 -99 -3
-114 -2 -114 12 0 9 8 16 20 16 19 0 20 7 20 140 0 133 -1 140 -20 140 -11 0
-20 7 -20 15 0 24 199 21 248 -4z m452 -81 c17 -17 20 -33 20 -110 0 -71 3
-92 15 -96 8 -4 15 -12 15 -20 0 -20 -89 -19 -96 1 -5 12 -11 11 -34 -6 -53
-40 -120 -2 -120 67 0 43 29 66 90 72 l51 5 -3 36 c-2 28 -7 36 -23 36 -13 0
-21 -8 -23 -23 -3 -18 -9 -23 -29 -20 -14 2 -31 11 -37 21 -9 15 -7 22 13 38
33 27 133 27 161 -1z m381 10 c19 -11 27 -60 10 -60 -5 0 -15 -2 -23 -5 -7 -3
-17 5 -23 17 -12 26 -40 35 -60 18 -21 -18 -8 -37 38 -55 59 -23 87 -52 87
-90 0 -62 -78 -100 -154 -75 -40 13 -57 49 -36 75 18 21 40 19 40 -4 0 -28 37
-52 64 -42 39 15 25 43 -39 76 -41 22 -63 40 -69 58 -12 33 5 74 36 87 32 12
105 12 129 0z m1273 0 c58 -22 84 -123 50 -195 -16 -34 -71 -65 -115 -65 -36
0 -89 31 -104 61 -18 35 -19 126 -1 158 7 13 24 30 37 37 28 16 97 18 133 4z
m442 -15 c9 -13 14 -48 14 -107 0 -70 3 -90 15 -94 8 -4 15 -12 15 -20 0 -17
-80 -20 -97 -3 -8 8 -17 7 -34 -5 -33 -23 -66 -20 -94 9 -31 30 -34 84 -5 110
11 10 42 20 70 23 l51 5 -3 36 c-2 28 -7 36 -23 36 -13 0 -21 -8 -23 -22 -3
-23 -24 -29 -56 -17 -23 9 -20 40 7 59 32 23 144 17 163 -10z m301 10 c5 -14
7 -14 23 0 23 21 89 16 104 -7 14 -22 0 -48 -32 -59 -19 -7 -24 -4 -33 19
l-11 27 -19 -24 c-15 -18 -19 -39 -19 -92 0 -65 2 -70 25 -79 49 -19 26 -30
-60 -30 -84 0 -104 9 -65 30 18 9 20 21 20 101 0 70 -3 91 -15 95 -8 4 -15 12
-15 20 0 21 89 19 97 -1z m896 -789 c24 -18 21 -52 -5 -70 -20 -14 -237 -16
-2110 -16 -1884 0 -2088 2 -2102 16 -19 18 -21 55 -4 72 19 19 4196 17 4221
-2z"/>
<path d="M6181 7252 c-8 -15 -11 -246 -11 -791 0 -656 2 -771 14 -778 8 -4 74
-5 148 -2 152 7 211 25 293 87 146 111 229 311 255 617 10 118 10 162 -3 280
-25 219 -75 351 -170 452 -97 103 -197 142 -388 150 -121 6 -127 5 -138 -15z"/>
<path d="M4691 3681 c-20 -37 -14 -51 25 -51 34 0 35 1 32 33 -4 39 -40 51
-57 18z"/>
<path d="M5541 3681 c-20 -37 -14 -51 25 -51 34 0 35 1 32 33 -4 39 -40 51
-57 18z"/>
<path d="M5430 3054 c-13 -32 -13 -95 -1 -127 12 -31 40 -42 59 -23 19 19 27
112 13 149 -14 37 -57 38 -71 1z"/>
<path d="M7064 3053 c-3 -16 -7 -34 -10 -41 -9 -30 9 -103 29 -114 33 -17 57
21 57 89 0 67 -13 93 -45 93 -19 0 -26 -7 -31 -27z"/>
<path d="M3710 3030 c0 -139 0 -140 23 -140 55 0 97 63 97 145 0 85 -35 135
-94 135 l-26 0 0 -140z"/>
<path d="M4200 2977 c-31 -15 -41 -73 -15 -83 26 -10 47 18 43 59 -3 35 -4 36
-28 24z"/>
<path d="M5856 3074 c-11 -11 -16 -35 -16 -80 0 -78 12 -104 46 -104 31 0 44
31 44 103 0 80 -36 119 -74 81z"/>
<path d="M6295 2982 c-11 -3 -23 -9 -27 -16 -14 -20 -9 -66 8 -73 25 -9 46 20
42 58 -2 28 -7 34 -23 31z"/>
</g>
</svg>
